<?xml version="1.0" ?><!DOCTYPE svg  PUBLIC '-//W3C//DTD SVG 1.1//EN'  'http://www.w3.org/Graphics/SVG/1.1/DTD/svg11.dtd'><svg enable-background="new 0 0 48 48" height="40px" id="Capa_1" version="1.1" viewBox="0 0 48 48" width="40px" xml:space="preserve" xmlns="http://www.w3.org/2000/svg" xmlns:xlink="http://www.w3.org/1999/xlink"><path d="M34.41355,23.97284v9.64996c0,0.54004-0.44,0.98004-0.97998,0.98004h-7.24005v-4.92004    c0-0.26996-0.04999-0.52997-0.14996-0.76996c-0.10004-0.26001-0.26001-0.5-0.46002-0.70001    c-0.37-0.38-0.89001-0.60999-1.46997-0.60999c-0.88,0-1.63,0.53998-1.92999,1.31c-0.10004,0.23999-0.15002,0.5-0.15002,0.76996    v4.92004h-7.23999c-0.54004,0-0.98004-0.44-0.98004-0.98004v-9.64996c0-0.44,0.17004-0.85999,0.48004-1.16003l9.13001-9.13    c0.38-0.37994,1-0.37994,1.38,0l9.13,9.13C34.24357,23.11286,34.41355,23.53284,34.41355,23.97284z" fill="#ffa400"/></svg>